<?xml version="1.0" encoding="UTF-8" standalone="no"?><!DOCTYPE svg PUBLIC "-//W3C//DTD SVG 1.1//EN" "http://www.w3.org/Graphics/SVG/1.1/DTD/svg11.dtd"><svg width="100%" height="100%" viewBox="0 0 2631 4371" version="1.1" xmlns="http://www.w3.org/2000/svg" xmlns:xlink="http://www.w3.org/1999/xlink" xml:space="preserve" xmlns:serif="http://www.serif.com/" style="fill-rule:evenodd;clip-rule:evenodd;stroke-linejoin:round;stroke-miterlimit:2;"><g id="g1"><g id="g2"><path id="path7" d="M807.979,4363.859c-729.146,-92.702 -1067.768,-892.438 -577.72,-1364.425c365.676,-352.199 998.841,-210.321 1134.822,254.287c27.386,93.572 15.384,131.683 -19.809,62.898c-301.072,-588.456 -1171.758,-447.717 -1195.427,193.231c-22.431,607.387 779.09,955.067 1357.032,588.647c96.117,-60.939 156.006,-106.976 225.581,-173.405c95.642,-91.317 54.904,-16.343 -57.261,105.383c-81.576,88.53 -164.161,153.143 -281.66,220.365c-161.282,92.27 -394.577,137.298 -585.557,113.017Zm140.564,-208.482c-8.021,-0.901 -34.271,-3.733 -58.333,-6.292c-135.305,-14.392 -305.946,-83.703 -408.333,-165.856c-38.408,-30.818 -29.477,-36.145 19.423,-11.586c266.041,133.614 587.392,125.457 845.16,-21.452c449.67,-256.279 819.973,-879.935 769.011,-1295.149c-21.591,-175.911 -86.608,-307.735 -261.406,-530.006c-204.298,-259.783 -267.226,-451.872 -213.393,-651.38c14.467,-53.616 33.634,-64.917 38.735,-22.839c1.158,9.552 4.114,35.18 6.569,56.951c16.55,146.759 85.71,283.966 234.18,464.583c175.612,213.637 253.459,333.661 298.627,460.417c139.451,391.346 -15.77,884.294 -415.813,1320.532c-244.707,266.848 -594.191,431.309 -854.427,402.077Zm377.348,-334.681c-1.271,-2.056 11.616,-32.525 28.636,-67.708c171.044,-353.56 163.727,-652.354 -21.669,-884.803c-60.643,-76.034 -148.616,-157.724 -305.149,-283.353c-206.639,-165.843 -266.35,-228.364 -328.962,-344.443c-90.05,-166.946 -73.442,-370.818 42.646,-523.516c51.762,-68.085 104.057,-108.964 230.066,-179.84c218.503,-122.901 292.587,-229.799 333.026,-480.535c16.661,-103.303 57.875,-40.195 63.415,97.104c8.373,207.494 -87.064,367.972 -289.244,486.365c-111.023,65.013 -127.123,74.921 -153.659,94.562c-89.574,66.297 -142.879,192.603 -130.453,309.103c17.119,160.496 89.051,269.337 314.415,475.744c41.25,37.78 84.406,77.43 95.902,88.111c24.065,22.359 34.348,29.712 28.97,20.716c-1.924,-3.219 -32.48,-49.915 -67.901,-103.769c-162.203,-246.61 -218.262,-354.167 -184.594,-354.167c16.178,0 226.589,224.602 325.934,347.917c312.333,387.692 371.694,726.576 190.424,1087.104c-51.438,102.304 -158.637,236.711 -171.804,215.407Zm248.579,-169.414c-17.162,-12.021 -6.036,-39.347 16.021,-39.347c9.197,0 20.552,13.287 20.552,24.05c0,8.525 -13.948,21.783 -22.917,21.783c-2.418,0 -8.563,-2.919 -13.656,-6.486Zm54.221,-89.41c-18.644,-7.667 -21.32,-37.385 -4.719,-52.409c17.816,-16.124 53.738,-0.546 53.738,23.304c0,19.63 -29.486,37.137 -49.019,29.104Zm62.703,-111.193c-22.536,-4.362 -37.035,-38.722 -25.696,-60.894c25.615,-50.087 98.459,-14.952 76.746,37.016c-5.517,13.204 -27.497,28.158 -38.558,26.232c-1.792,-0.312 -7.414,-1.372 -12.492,-2.354Zm28.581,-149.298c-26.708,-22.474 -25.916,-56.496 1.885,-80.905c25.964,-22.797 62.444,-15.108 78.851,16.619c25.139,48.613 -38.829,99.548 -80.735,64.286Zm32.819,-167.578c-40.916,-20.557 -45.277,-75.629 -8.443,-106.623c25.27,-21.263 58.093,-18.398 82.943,7.241c49.721,51.299 -10.447,131.563 -74.5,99.382Zm-10.5,-203.553c-91.9,-50.208 -25.878,-183.258 67.338,-135.703c48.46,24.722 51.207,98.102 4.823,128.798c-20.69,13.692 -53.918,16.871 -72.161,6.905Zm599.71,-137.946c-3.613,-28.915 0.723,-139.789 8.682,-222.037c13.23,-136.708 28.489,-213.457 87.399,-439.583c17.314,-66.458 37.934,-148.021 45.824,-181.25c77.626,-326.95 5.991,-436.65 -299.336,-458.396c-165.945,-11.819 -206.245,-17.31 -273.528,-37.266c-153.387,-45.496 -211.014,-157.709 -168.062,-327.254c3.483,-13.75 6.76,-45.625 7.282,-70.833c1.302,-62.885 15.681,-96.586 33.576,-78.692c3.504,3.504 6.371,12.405 6.371,19.781c0,84.239 88.428,192.655 198.082,242.856c61.476,28.145 88.997,17.32 95.168,-37.429c3.385,-30.035 11.267,-45.874 27.644,-55.548c8.456,-4.995 11.735,-9.533 9.965,-13.79c-7.486,-18.001 -6.536,-21.586 9.724,-36.707c16.156,-15.024 16.586,-16.133 14.878,-38.388c-2.415,-31.461 7.652,-47.052 39.437,-61.079c13.118,-5.789 24.62,-11.276 25.559,-12.194c0.939,-0.918 -7.799,-21.838 -19.417,-46.49c-22.589,-47.928 -34.373,-79.729 -34.373,-92.761c0,-5.686 -6.77,-11.268 -22.946,-18.921c-55.183,-26.106 -58.781,-63.297 -4.972,-51.389c14.209,3.145 27.525,5.725 29.592,5.734c15.229,0.067 34.726,-114.573 29.716,-174.718c-3.401,-40.827 -5.102,-42.274 -21.129,-17.973c-62.144,94.231 -215.342,189.05 -341.512,211.372c-61.045,10.8 -65.374,0.841 -13.726,-31.573c304.818,-191.297 375.411,-378.81 174.756,-464.196c-192.967,-82.115 -462.288,-31.144 -630.834,119.389c-15.484,13.829 -32.28,18.537 -32.28,9.048c0,-34.705 120.254,-147.743 208.333,-195.833c296.211,-161.725 703.848,-37.475 690.462,210.456c-1.955,36.215 -1.129,43.448 7.144,62.5c33.065,76.145 35.497,158.409 7.101,240.232c-16.678,48.057 -17.499,52.342 -10.78,56.25c30.712,17.865 32.777,31.699 5.621,37.663c-15.482,3.4 -15.227,4.458 17.369,72.079c35.961,74.602 29.526,105.653 -25.299,122.078c-21.867,6.552 -26.28,12.121 -20.874,26.341c8.11,21.33 5.276,39.357 -8.108,51.582c-8.815,8.051 -11.702,13.825 -10.058,20.112c3.152,12.052 -7.683,31.525 -25.893,46.535c-14.449,11.91 -15.318,14.104 -18.639,47.05c-12.333,122.343 -176.977,114.24 -307.004,-15.11c-21.198,-21.088 -38.708,-37.199 -38.912,-35.804c-3.529,24.186 7.374,77.375 21.686,105.789c39.96,79.335 104.056,98.565 357.279,107.195c258.611,8.814 368.974,64.176 429.708,215.558c54.09,134.82 33.605,276.907 -100.175,694.828c-43.874,137.06 -89.696,298.327 -122.893,432.514c-19.894,80.413 -20.478,82.069 -28.932,82.069c-3.815,0 -6.689,-7.881 -8.677,-23.797Zm-645.302,-78.254c-90.207,-32.135 -65.075,-168.88 31.009,-168.719c14.12,0.025 49.983,17.381 61.259,29.65c59.002,64.192 -10.098,168.341 -92.269,139.069Zm-93.035,-220.994c-68.2,-34.532 -68.081,-130.211 0.205,-165.048c51.893,-26.474 121.476,10.454 130.276,69.138c10.536,70.257 -67.648,127.725 -130.481,95.91l0,-0Zm-78.039,-214.095c-109.057,-27.332 -89.587,-185.053 22.917,-185.636c86.578,-0.449 125.888,103.365 61.798,163.202c-19.128,17.859 -59.894,28.654 -84.715,22.434Zm-79.167,-242.887c-69.704,-24.365 -80.004,-121.064 -16.993,-159.536c58.892,-35.956 135.984,7.672 135.652,76.769c-0.286,59.564 -61.963,102.585 -118.658,82.767Zm-25,-247.729c-78.101,-41.174 -44.924,-155.974 42.237,-146.149c77.876,8.778 93.508,116.488 21.286,146.664c-19.552,8.17 -47.48,7.943 -63.523,-0.515Zm24.06,-230.965c-58.698,-29.055 -37.885,-116.207 27.765,-116.263c62.464,-0.053 85.205,84.507 31.074,115.541c-20.335,11.658 -36.348,11.855 -58.839,0.722Zm50.164,-191.071c-35.49,-21.64 -27.66,-74.197 13.055,-87.634c27.302,-9.011 60.638,15.423 60.638,44.446c0,40.58 -39.758,63.88 -73.692,43.189Zm61.359,-166.066c-14.872,-14.872 -16.131,-28.613 -4.031,-43.996c11.831,-15.04 35.825,-15.328 49.666,-0.596c29.729,31.645 -14.937,75.29 -45.635,44.592Zm-123.084,-187.587c-170.72,-38.633 -270.267,-160.271 -270.684,-330.751l-0.15,-61.28l-17.305,-17.887c-217.551,-224.862 68.74,-617.747 438.885,-602.296c114.636,4.786 193.39,65.659 84.945,65.659c-175.878,0 -387.951,122.298 -450.222,259.633c-96.752,213.383 197.076,391.498 462.667,280.464c37.002,-15.47 30.963,9.498 -9.78,40.434c-114.165,86.685 -282.441,102.685 -406.308,38.631c-17.145,-8.866 -17.737,-0.989 -3.051,40.626c64.014,181.402 262.823,237.863 500.361,142.101c53.918,-21.737 67.238,-12.163 34.624,24.888c-81.498,92.586 -245.561,146.575 -363.982,119.777Z" style="fill:#ecb6c7;fill-rule:nonzero;"/><path id="path6" d="M806.876,4360.004c-672.223,-86.501 -1026.161,-782.556 -649.179,-1276.679c343.44,-450.158 1085.259,-326.923 1211.915,201.331c16.807,70.097 6.426,86.13 -20.759,32.062c-235.913,-469.207 -893.366,-512.26 -1129.77,-73.983c-210.93,391.051 45.108,864.134 532.126,983.209c339.641,83.042 668.438,-14.475 974.19,-288.934c63.397,-56.908 67.228,-56.674 23.365,1.428c-229.22,303.633 -593.014,466.458 -941.889,421.565Zm129.167,-208.972c-169.044,-15.484 -330.023,-75.839 -447.257,-167.69c-31.07,-24.343 -24.845,-26.328 16.836,-5.371c415.455,208.887 885.21,67.665 1245.285,-374.37c299.275,-367.395 423.818,-735.4 351.824,-1039.583c-33.404,-141.134 -83.892,-229.785 -269.336,-472.917c-170.199,-223.145 -227.122,-384.697 -199.664,-566.667c13.069,-86.609 43.978,-128.525 43.978,-59.639c0,162.291 71.756,302.487 298.168,582.555c119.941,148.365 182.512,246.671 228.549,359.075c156.154,381.26 9.99,881.399 -387.617,1326.342c-254.216,284.481 -591.689,444.742 -880.767,418.264Zm391.667,-332.447c0,-0.925 14.141,-31.085 31.424,-67.021c174.36,-362.532 162.475,-664.662 -35.404,-900.047c-52.284,-62.193 -152.398,-156.531 -241.854,-227.897c-175.171,-139.749 -231.559,-188.733 -279.167,-242.512c-260.22,-293.949 -200.331,-633.654 145.709,-826.5c239.448,-133.443 320.765,-243.09 356.443,-480.628c13.433,-89.437 35.476,-86.062 52.444,8.031c43.485,241.137 -63.632,435.11 -319.036,577.729c-184.961,103.283 -244.941,187.744 -245.669,345.943c-0.761,165.265 73.123,295.365 270.934,477.083c108.992,100.125 170.033,155.788 180.485,164.583l9.903,8.333l-5.214,-9.926c-2.868,-5.459 -44.018,-69.209 -91.444,-141.667c-145.656,-222.533 -199.464,-323.487 -175.14,-328.598c11.853,-2.49 240.743,242.396 323.468,346.075c313.791,393.272 371.157,738.162 182.054,1094.531c-47.385,89.298 -159.937,231.792 -159.937,202.484Zm246.024,-171.005c-8.111,-9.774 -3.535,-24.62 8.936,-28.987c13.754,-4.817 24.207,2.361 24.207,16.622c0,15.75 -23.162,24.392 -33.143,12.366Zm51.704,-95.873c-27.15,-27.15 12.174,-62.529 40.814,-36.719c14.984,13.503 4.209,39.705 -18.54,45.084c-8.755,2.07 -13.693,0.216 -22.274,-8.365Zm62.094,-106.247c-36.928,-15.555 -24.341,-75.193 15.87,-75.193c21.282,0 40.976,17.838 40.976,37.114c0,25.584 -33.397,47.956 -56.846,38.079Zm34.793,-146.091c-34.874,-27.432 -13.701,-87.435 30.853,-87.435c48.257,0 67.418,61.579 27.797,89.33c-13.511,9.464 -45.524,8.429 -58.65,-1.896Zm27.464,-170.6c-26.803,-16.343 -34.898,-56.816 -16.786,-83.927c43.584,-65.242 140.197,-1.852 98.934,64.913c-16.32,26.406 -55.248,35.417 -82.149,19.014Zm-7.485,-202.566c-46.443,-24.216 -55.886,-79.92 -19.685,-116.122c64.072,-64.072 163.673,28.246 103.91,96.312c-22.426,25.541 -57.439,33.776 -84.225,19.809Zm603.722,-129.708c-3.385,-18.044 0.663,-144.623 6.836,-213.728c10.902,-122.058 32.574,-236.383 77.011,-406.25c76.04,-290.673 85.37,-336.888 85.277,-422.415c-0.208,-191.983 -87.622,-253.024 -388.534,-271.312c-327.045,-19.877 -440.132,-126.132 -379.178,-356.273c3.98,-15.026 6.276,-38.403 5.755,-58.597c-1.385,-53.716 12.811,-100.765 26.88,-89.089c3.284,2.726 5.971,10.549 5.971,17.386c0,51.278 44.563,134.624 94.417,176.588c111.834,94.135 205.397,111.942 205.59,39.128c0.07,-26.5 7.845,-44.772 25.468,-59.857c14.858,-12.718 16.301,-15.487 12.13,-23.28c-6.477,-12.103 -2.311,-22.526 13.968,-34.942c13.123,-10.01 13.661,-11.506 11.877,-33.022c-2.722,-32.822 5.139,-45.268 38.568,-61.063c32.578,-15.392 32.187,-9.351 4.387,-67.836c-12.519,-26.336 -24.962,-57.079 -27.652,-68.318c-2.69,-11.239 -5.461,-22.64 -6.158,-25.337c-0.697,-2.697 -9.347,-8.555 -19.223,-13.017c-22.289,-10.07 -47.106,-35.267 -43.638,-44.305c3.134,-8.166 9.786,-8.173 41.166,-0.042c30.005,7.775 25.304,12.085 41.449,-38c12.628,-39.175 13.352,-44.871 13.46,-105.984c0.144,-81.484 -3.102,-89.514 -23.374,-57.823c-66.999,104.738 -261.356,220.324 -370.47,220.324c-25.078,0 -20.35,-5.135 43.243,-46.967c295.59,-194.441 347.019,-375.756 130.148,-458.841c-190.927,-73.146 -444.154,-22.239 -614.445,123.524c-59.31,50.767 -17.036,-22.109 49.588,-85.486c282.1,-268.348 831.458,-188.16 811.593,118.465c-2.16,33.335 -1.391,38.536 9.553,64.653c31.885,76.089 33.106,150.307 3.89,236.417c-10.049,29.617 -16.436,54.468 -14.194,55.225c29.843,10.069 36.396,25.157 14.242,32.788c-19.262,6.635 -18.241,12.093 15.303,81.838c34.523,71.78 27.315,101.748 -27.361,113.757c-20.682,4.542 -25.814,13.999 -19.334,35.627c6.328,21.121 3.853,30.947 -11.35,45.067c-5.814,5.4 -9.567,12.436 -8.34,15.634c4.498,11.721 -3.933,28.965 -22.492,46.004c-18.787,17.248 -19.056,17.873 -21.97,51.016c-10.916,124.153 -191.676,106.478 -315.03,-30.804c-31.618,-35.188 -32.865,-35.391 -31.298,-5.113c8.052,155.605 79.165,193.221 383.79,203.008c269.045,8.645 384.699,72.675 436.545,241.686c39.201,127.791 18.908,248.03 -113.571,672.917c-70.002,224.51 -95.366,315.354 -137.568,492.708c-3.378,14.197 -9.678,11.241 -12.924,-6.063Zm-644.298,-84.544c-90.12,-27.136 -68.452,-162.612 25.983,-162.454c21.488,0.037 53.383,19.244 66.624,40.124c39.98,63.042 -21.184,143.836 -92.608,122.33Zm-92.767,-220.089c-84.825,-40.223 -60.255,-167.478 32.496,-168.312c78.726,-0.707 118.434,90.044 64.475,147.355c-24.251,25.757 -67.25,35.05 -96.97,20.957Zm-85.444,-216.942c-80.912,-26.268 -91.388,-130.44 -16.914,-168.196c84.251,-42.712 168.002,50.735 115.661,129.052c-20.298,30.372 -67.784,49.195 -98.747,39.143Zm-79.14,-243.534c-59.999,-28.05 -72.025,-100.776 -23.685,-143.22c72.608,-63.751 181.17,29.225 127.209,108.946c-23.404,34.577 -69.929,49.98 -103.524,34.274Zm-22.917,-246.839c-30.25,-15.733 -41.767,-37.888 -38.731,-74.505c7.522,-90.707 145.218,-82.624 144.912,8.506c-0.18,53.665 -59.272,90.395 -106.181,65.998Zm24.63,-230.246c-41.284,-25.969 -41.831,-82.04 -1.006,-103.151c58.965,-30.492 115.851,46.168 69.015,93.005c-18.736,18.736 -47.525,23.031 -68.008,10.146Zm51.959,-190.298c-6.001,-3.261 -14.091,-12.632 -17.979,-20.825c-21.177,-44.627 40.108,-85.68 72.981,-48.888c34.221,38.3 -9.901,94.223 -55.002,69.713Zm60.721,-166.464c-19.933,-19.933 -8.88,-48.106 18.873,-48.106c17.493,0 33.399,14.249 33.399,29.918c0,11.478 -18.627,28.415 -31.25,28.415c-5.937,0 -15.398,-4.602 -21.023,-10.227Zm-120.091,-187.647c-173.954,-36.157 -281.854,-172.624 -272.09,-344.124l2.51,-44.081l-16.82,-16.336c-98.071,-95.246 -103.704,-257.37 -13.358,-384.434c120.366,-169.284 395.832,-266.102 550.548,-193.501c39.103,18.349 31.803,34.455 -15.681,34.598c-187.257,0.566 -409.744,132.152 -462.695,273.652c-79.855,213.398 202.318,380.442 466.65,276.252c56.034,-22.086 0.784,34.957 -66.7,68.866c-100.831,50.665 -230.909,52.445 -335.435,4.592c-28.899,-13.231 -27.065,-13.168 -27.065,-0.927c0,33.789 33.653,100.228 72.103,142.347c95.182,104.265 241.577,120.336 434.992,47.752c58.697,-22.028 67.834,-19.093 42.023,13.496c-69.115,87.265 -242.394,146.08 -358.982,121.846Z" style="fill:#ea99aa;fill-rule:nonzero;"/><path id="path5" d="M883.959,4363.522c-93.828,-8.645 -118.922,-11.951 -160.417,-21.135c-627.507,-138.888 -918.9,-788.341 -563.589,-1256.118c324.988,-427.856 1028.095,-342.298 1191.136,144.944c29.888,89.318 33.66,153.135 5.456,92.297c-147.053,-317.202 -548.073,-475.458 -858.556,-338.815c-427.339,188.071 -480.161,768.569 -97.436,1070.799c383.014,302.459 903.353,262.767 1308.409,-99.809c23.041,-20.625 46.333,-41.25 51.759,-45.833l9.865,-8.333l-4.87,9.283c-32.769,62.458 -179.659,207.298 -279.675,275.772c-178.234,122.024 -421.678,193.57 -602.083,176.948Zm4.167,-220.791c-93.444,-11.763 -211.031,-49.598 -293.679,-94.494c-68.16,-37.026 -137.841,-91.2 -78.111,-60.728c220.725,112.605 517.946,114.463 759.29,4.746c436.71,-198.532 847.78,-803.321 848.983,-1249.07c0.597,-221.181 -58.199,-354.516 -286.257,-649.162c-158.732,-205.079 -221.731,-366.884 -206.629,-530.707c9.317,-101.068 35.237,-165.32 42.441,-105.204c1.488,12.415 4.795,39.858 7.35,60.985c18.003,148.873 82.627,271.175 255.098,482.781c180.822,221.851 255.579,345.738 293.233,485.942c95.958,357.293 -12.899,732.812 -332.261,1146.194c-280.914,363.614 -656.912,553.099 -1009.459,508.718Zm443.75,-328.772c0,-1.178 11.952,-26.022 26.559,-55.208c161.807,-323.296 166.804,-618.529 14.314,-845.744c-65.278,-97.266 -159.75,-188.068 -372.123,-357.666c-256.689,-204.988 -344.15,-335.769 -350.869,-524.655c-7.469,-209.975 86.533,-355.851 308.609,-478.913c224.017,-124.137 308.843,-236.951 345.919,-460.054c16.874,-101.535 30.685,-106.81 49.069,-18.742c47.377,226.955 -53.662,430.203 -279.812,562.869c-33.229,19.493 -74.781,43.922 -92.337,54.287c-231.069,136.422 -260.558,399.667 -71.214,635.732c46.473,57.941 330.236,331.99 351.697,339.658c5.167,1.846 1.365,-4.187 -100.652,-159.725c-135.62,-206.771 -203.55,-331.361 -180.668,-331.361c13.22,0 236.105,240.162 320.953,345.833c314.623,391.834 373.78,743.914 184.122,1095.833c-45.528,84.479 -153.568,223.678 -153.568,197.857Zm241.888,-170.507c-7.183,-8.655 1.589,-23.183 13.999,-23.183c13.867,0 20.938,9.638 15.089,20.567c-5.338,9.973 -21.757,11.45 -29.088,2.616Zm52.16,-92.231c-14.346,-14.346 -3.085,-43.452 16.812,-43.452c13.945,0 26.641,11.914 26.641,25c0,20.873 -28.802,33.103 -43.452,18.452Zm51.465,-118.132c-13.509,-13.509 -15.123,-24.209 -6.242,-41.383c17.854,-34.526 69.063,-22.201 69.063,16.622c0,34.938 -37.76,49.821 -62.82,24.761Zm56.104,-129.191c-28.637,-12.264 -35.251,-49.401 -13.075,-73.419c24.652,-26.7 62.379,-20.637 76.112,12.232c15.465,37.012 -25.849,77.113 -63.037,61.186Zm28.937,-171.545c-27.489,-7.938 -44.462,-42.984 -34.879,-72.021c19.54,-59.207 105.038,-50.401 111.396,11.473c4.227,41.138 -35.331,72.441 -76.517,60.548Zm-11.157,-205.828c-41.705,-14.438 -59.082,-55.61 -40.624,-96.252c33.536,-73.845 150.364,-33.097 129.308,45.101c-11.337,42.104 -50.151,64.491 -88.684,51.151Zm597.27,-194.262c0,-169.813 22.35,-318.483 83.233,-553.661c76.047,-293.751 82.608,-324.868 86.102,-408.333c8.246,-196.988 -84.174,-270.172 -363.085,-287.512c-345.845,-21.502 -458.752,-113.328 -409.84,-333.321c5.219,-23.474 9.173,-57.413 9.716,-83.396c1.69,-80.933 21.694,-114.304 31.185,-52.021c10.477,68.758 62.599,142.093 137.406,193.33c106.799,73.148 157.139,72.185 166.603,-3.186c4.276,-34.056 8.8,-43.532 25.487,-53.389c11.649,-6.881 12.389,-8.711 9.991,-24.704c-2.425,-16.173 -1.644,-17.993 12.273,-28.609c14.45,-11.022 14.842,-12.061 14.091,-37.39c-0.992,-33.463 6.431,-45.112 37.505,-58.854c32.15,-14.218 32.054,-13.258 6.668,-66.664c-12.363,-26.01 -25.728,-59.715 -29.699,-74.901c-7.079,-27.072 -7.645,-27.812 -28.992,-37.917c-41.559,-19.673 -52.408,-46.282 -16.769,-41.131c48.303,6.982 44.891,8.924 58.42,-33.251c14.27,-44.488 18.733,-88.996 14.592,-145.53c-3.908,-53.358 -6.382,-55.037 -29.608,-20.1c-63.773,95.929 -208.884,187.081 -336.307,211.252c-57.248,10.86 -56.287,8.169 13.359,-37.41c333.061,-217.972 353.611,-433.838 46.401,-487.411c-196.984,-34.351 -364.819,13.4 -540.997,153.92c-34.416,27.45 3.108,-28.506 53.792,-80.214c157.239,-160.419 412.468,-214.828 631.308,-134.58c123.844,45.413 200.213,148.6 184.893,249.822c-3.373,22.287 -2.66,27.976 6.19,49.387c37.281,90.193 36.952,173.747 -1.053,267.276c-12.827,31.567 -13.438,27.687 6.435,40.839c19.26,12.746 19.413,18.435 0.625,23.303c-19.168,4.967 -17.497,14.379 13.825,77.882c36.635,74.275 31.37,101.21 -22.966,117.489c-24.393,7.308 -27.431,12.629 -21.168,37.067c6.163,24.047 3.766,34.252 -10.195,43.4c-8.136,5.331 -10.254,10.25 -10.254,23.808c0,15.038 -2.501,19.513 -20.833,37.276c-18.132,17.568 -20.833,22.337 -20.833,36.776c0,138.254 -176.609,129.409 -312.765,-15.664l-37.235,-39.674l0,21.219c0,165.856 80.296,211.175 389.583,219.878c249.625,7.025 362.844,63.967 422.502,212.491c52.517,130.746 34.306,254.427 -102.148,693.75c-55.809,179.68 -62.402,201.736 -82.827,277.083c-16.323,60.216 -44.719,171.806 -53.809,211.458c-6.787,29.605 -10.801,7.348 -10.801,-59.881Zm-660.829,-28.267c-44.869,-20.377 -55.93,-84.604 -21.353,-123.986c55.147,-62.809 158.582,-6.213 136.165,74.504c-12.949,46.626 -68.44,70.541 -114.812,49.482Zm-84.499,-217.765c-49.682,-24.592 -59.687,-93.276 -19.651,-134.906c53.289,-55.41 144.146,-17.09 144.146,60.795c0,61.837 -67.778,102.185 -124.494,74.112Zm-94.256,-219.695c-84.445,-39.097 -53.949,-167.101 39.811,-167.101c61.208,0 104.625,62.905 81.544,118.145c-19.613,46.941 -76.307,69.812 -121.355,48.955Zm-74.188,-242.278c-55.634,-30.145 -53.754,-118.011 3.114,-145.54c91.495,-44.292 167.492,78.92 86.691,140.55c-20.303,15.486 -65.772,18.012 -89.805,4.99Zm-19.988,-246.731c-59.618,-39.619 -32.693,-126.008 39.273,-126.008c47.198,0 71.269,22.889 70.851,67.37c-0.525,55.801 -63.741,89.462 -110.124,58.638Zm26.868,-228.317c-36.634,-23.469 -32.745,-75.878 7.187,-96.868c47.044,-24.728 97.833,31.671 72.55,80.563c-12.689,24.539 -53.771,32.939 -79.737,16.305Zm66.107,-183.644c-30.784,-8.878 -38.338,-48.913 -13.462,-71.339c34.423,-31.032 86.11,9.567 64.754,50.864c-5.457,10.552 -29.586,26.986 -36.416,24.802c-0.647,-0.207 -7.341,-2.154 -14.876,-4.327Zm51.846,-169.584c-15.204,-16.801 -3.401,-46.547 18.469,-46.547c12.589,0 28.801,16.456 28.801,29.233c0,21.81 -32.447,33.695 -47.271,17.314Zm-90.004,-184.556c-184.072,-21.325 -304.029,-156.413 -299.539,-337.321l1.301,-52.413l-22.869,-25.316c-129.641,-143.516 -77.737,-362.976 116.42,-492.249c142.384,-94.801 322.14,-125.714 425.743,-73.214c36.787,18.642 30.542,24.678 -29.616,28.625c-294.783,19.343 -537.619,253.15 -448.999,432.306c67.267,135.989 292.877,194.973 467.185,122.142c55.867,-23.343 -9.396,35.37 -74.436,66.964c-98.312,47.757 -231.789,47.593 -333.26,-0.411c-32.027,-15.151 -33.903,-11.497 -18.438,35.916c63.601,194.993 261.064,255.797 511.182,157.406c63.651,-25.039 55.15,1.811 -17.701,55.911c-67.782,50.335 -197.794,96.032 -243.866,85.715c-1.146,-0.257 -16.044,-2.084 -33.108,-4.061l0,0Z" style="fill:#de6b8e;fill-rule:nonzero;"/><path id="path4" d="M823.543,4355.556c-675.611,-77.322 -1039.12,-769.256 -664.286,-1264.455c353.38,-466.856 1111.889,-320.222 1212.382,234.375c4.001,22.082 -0.211,19.451 -14.648,-9.147c-38.65,-76.566 -104.049,-160.249 -169.497,-216.883c-316.187,-273.608 -786.11,-205.23 -973.513,141.655c-146.076,270.388 -67.928,615.93 184.561,816.07c382.067,302.851 899.872,265.535 1307.074,-94.195c46.564,-41.136 49.694,-42.307 23.41,-8.762c-222.928,284.522 -572.477,439.455 -905.485,401.342Zm56.486,-216.664c-117.081,-16.727 -247.234,-65.066 -338.964,-125.891c-36.002,-23.872 -42.964,-32.839 -14.041,-18.083c211.741,108.022 512.531,108.935 746.713,2.267c442.193,-201.415 854.024,-805.478 854.941,-1254.001c0.46,-225.148 -53.461,-346.417 -292.72,-658.333c-129.983,-169.456 -191.466,-304.524 -201.993,-443.75c-4.634,-61.289 8.973,-160.923 26.46,-193.75l6.659,-12.5l3.338,27.083c26.131,211.987 71.374,306.083 257.288,535.101c182.728,225.092 255.066,342.323 293.949,476.372c103.521,356.883 -6.27,745.218 -327.776,1159.361c-213.67,275.236 -487.602,455.543 -766.173,504.31c-43.362,7.591 -199.255,8.733 -247.68,1.814Zm460.18,-333.272c0,-1.181 11.007,-24.15 24.459,-51.042c142.581,-285.024 161.183,-570.287 50.748,-778.217c-66.261,-124.759 -163.77,-224.732 -414.791,-425.275c-269.566,-215.359 -353.417,-351.377 -346.895,-562.715c5.812,-188.34 100.139,-320.615 311.374,-436.642c210.479,-115.612 309.57,-244.41 339.962,-441.878c17.638,-114.603 28.287,-122.352 45.81,-33.333c47.455,241.066 -60.397,435.468 -323.168,582.51c-213.009,119.196 -280.753,255.565 -228.92,460.817c33.135,131.212 100.802,219.699 326.837,427.403c48.125,44.222 100.625,92.781 116.667,107.909c54.457,51.355 53.615,49.648 -63.433,-128.639c-143.614,-218.751 -207.197,-330.758 -194.799,-343.157c7.758,-7.758 253.297,259.841 334.258,364.289c302.313,390.012 351.915,749.43 150.545,1090.849c-37.46,63.513 -128.653,181.974 -128.653,167.122Zm235.649,-164.143c-4.442,-7.188 2.767,-17.043 12.467,-17.043c11.347,0 15.44,4.899 11.868,14.207c-2.718,7.082 -20.435,9.146 -24.335,2.835Zm52.684,-92.876c-11.173,-11.173 -1.216,-36.667 14.322,-36.667c19.974,0 29.575,21.342 15.797,35.119c-7.771,7.771 -23.108,8.559 -30.119,1.548Zm51.061,-117.727c-13.76,-13.76 -13.078,-29.23 1.952,-44.26c22.128,-22.128 54.487,-9.816 54.487,20.73c0,30.836 -34.677,45.293 -56.439,23.53Zm51.336,-133.542c-45.792,-25.76 -6.3,-98.147 41.19,-75.5c27.126,12.935 32.404,50.848 9.913,71.202c-10.956,9.915 -37.196,12.122 -51.103,4.298Zm31.407,-169.074c-25.702,-7.598 -40.032,-39.435 -30.605,-67.999c14.918,-45.202 76.027,-49.248 98.135,-6.497c21.597,41.764 -20.639,88.357 -67.529,74.495Zm-10.955,-205.645c-31.643,-11.381 -46.543,-33.947 -43.478,-65.845c6.988,-72.731 105.662,-84.227 127.849,-14.896c15.462,48.316 -36.437,97.982 -84.371,80.741Zm601.317,-197.989c0,-176.702 25.519,-329.191 106.367,-635.605c87.247,-330.664 86.245,-439.043 -4.831,-522.497c-62.054,-56.862 -131.672,-77.437 -297.369,-87.886c-347.062,-21.886 -456.449,-110.199 -407.756,-329.201c5.219,-23.474 9.173,-57.413 9.716,-83.396c1.272,-60.904 15.561,-104.782 20.837,-63.982c12.823,99.175 91.648,193.329 207.072,247.343c66.862,31.289 106.587,13.045 107.397,-49.322c0.283,-21.764 9.092,-37.983 25.857,-47.605c11.687,-6.707 12.24,-8.193 9.603,-25.784c-2.721,-18.144 -2.377,-18.915 12.27,-27.557c15.065,-8.889 15.069,-8.899 14.329,-36.586c-0.947,-35.403 3.358,-42.827 32.814,-56.586c37.127,-17.341 37.027,-16.717 11.375,-70.682c-12.289,-25.853 -25.872,-59.963 -30.185,-75.799c-7.417,-27.234 -8.891,-29.358 -27.217,-39.21c-47.103,-25.325 -50.427,-41.538 -6.828,-33.311c34.772,6.561 32.649,8.325 47.671,-39.605c17.341,-55.329 19.909,-195.505 3.68,-200.903c-2.63,-0.875 -11.528,9.514 -19.773,23.087c-59.941,98.674 -230.631,207.026 -346.36,219.865c-30.183,3.349 -30.4,3.605 31.332,-37.102c271.13,-178.793 335.659,-363.301 156.814,-448.38c-182.762,-86.943 -442.589,-55.677 -612.821,73.742c-13.884,10.555 -32.561,24.778 -41.504,31.606l-16.26,12.415l16.857,-24.665c87.727,-128.359 282.589,-222.582 460.321,-222.582c243.158,0 411.297,119.154 396.624,281.074c-2.479,27.354 -1.526,33.464 9.844,63.147c33.261,86.829 32.199,153.311 -4.002,250.535c-14.045,37.72 -13.313,41.783 9.212,51.113c14.519,6.014 13.196,10.434 -4.165,13.906c-19.16,3.832 -16.518,18.697 14.497,81.577c37.325,75.673 33.271,96.236 -22.631,114.804c-24.708,8.207 -28.015,15.365 -20.551,44.489l5.411,21.114l-13.406,11.979c-11.042,9.866 -13.406,15.045 -13.406,29.367c0,15.39 -2.251,19.454 -19.584,35.368c-19.149,17.58 -19.651,18.682 -22.595,49.506c-8.949,93.688 -79.351,110.07 -205.642,47.851c-45.72,-22.525 -66.945,-39.224 -104.342,-82.095c-39.24,-44.983 -39.537,-45.097 -39.358,-15.123c0.513,85.768 37.954,160.298 93.801,186.718c56.373,26.669 123.146,35.548 328.971,43.746c222.535,8.863 326.71,62.596 385.203,198.684c57.672,134.178 40.818,254.964 -97.582,699.325c-64.57,207.316 -86.373,283.447 -121.715,425c-8.01,32.083 -15.335,59.115 -16.276,60.069c-0.942,0.955 -1.712,-26.929 -1.712,-61.964Zm-664.981,-24.788c-29.798,-13.533 -46.34,-55.68 -35.156,-89.569c27.079,-82.05 147.915,-63.349 147.915,22.893c0,56.979 -58.258,91.428 -112.759,66.676Zm-62.102,-208.812c-18.18,-3.842 -28.484,-10.255 -42.951,-26.732c-59.334,-67.578 16.942,-165.777 97.341,-125.319c82.914,41.724 36.573,171.274 -54.39,152.051Zm-116.667,-228.366c-92.248,-44.039 -34.621,-186.047 63.655,-156.862c68.796,20.43 80.466,117.45 18.445,153.348c-20.336,11.77 -61.147,13.517 -82.101,3.514Zm-55.752,-234.534c-66.592,-19.896 -77.067,-115.348 -15.908,-144.955c57.21,-27.695 116.769,8.108 117.197,70.452c0.353,51.332 -51.409,89.406 -101.288,74.503Zm-21.332,-246.124c-38.876,-10.808 -56.939,-56.962 -37.332,-95.394c24.197,-47.43 100.026,-45.216 121.597,3.549c24.282,54.893 -24.79,108.379 -84.265,91.845Zm22.917,-229.951c-43.278,-19.797 -46.597,-75.5 -5.756,-96.619c41.815,-21.624 92.518,25.814 71.919,67.288c-13.919,28.024 -41.902,40.429 -66.163,29.331Zm50,-190.783c-37.487,-20.615 -25.443,-74.331 16.667,-74.331c42.89,0 54.327,60.521 14.088,74.548c-16.214,5.652 -20.131,5.624 -30.755,-0.218l0,0Zm57.083,-166.831c-9.595,-9.595 -6.11,-32.173 5.805,-37.602c21.855,-9.958 45.682,18.495 30.653,36.603c-6.037,7.274 -29.538,7.918 -36.458,0.998Zm-109.167,-189.006c-186.164,-28.664 -304.751,-186.059 -276.746,-367.311c1.806,-11.686 -0.764,-16.485 -20.078,-37.5c-103.294,-112.388 -102.253,-265.324 2.693,-395.538c125.516,-155.736 375.189,-238.244 524.339,-173.276c35.877,15.628 31.425,19.388 -29.167,24.635c-299.666,25.951 -535.939,259.466 -443.002,437.831c50.913,97.712 161.216,152.925 304.46,152.4c77.118,-0.283 73.042,0.428 168.75,-29.414c27.615,-8.61 -41.195,42.123 -85.786,63.25c-95.801,45.39 -220.181,44.814 -322.306,-1.491c-36.55,-16.573 -40.055,-13.963 -30.447,22.669c27.932,106.497 118.68,195.063 221.873,216.538c87.683,18.247 177.177,4.621 320.004,-48.723c30.451,-11.373 8.033,19.66 -40.052,55.443c-90.993,67.714 -194.247,95.93 -294.536,80.489Z" style="fill:#ea4d54;fill-rule:nonzero;"/><path id="path3" d="M903.83,4350.714c4.054,-1.056 9.679,-0.987 12.5,0.154c2.821,1.141 -0.496,2.005 -7.371,1.921c-6.875,-0.083 -9.183,-1.019 -5.129,-2.075l0,0Zm130.469,-13.517c-7.557,-4.982 -23.584,-9.086 -42.341,-10.844c-26.083,-2.444 -30.506,-4.04 -32.575,-11.748c-5.156,-19.215 -3.775,-20.519 19.368,-18.289c31.082,2.995 61.406,-15.362 43.855,-26.548c-6.592,-4.201 24.582,-8.435 54.869,-7.453c15.459,0.502 29.805,-0.042 31.879,-1.175c2.074,-1.148 12.209,-4.142 22.521,-6.655c77.878,-18.974 97.008,-22.424 110.411,-19.909c11.173,2.096 14.589,1.335 14.589,-3.247c0,-3.873 17.28,-12.141 48.958,-23.428c50.087,-17.846 173.196,-76.052 203.125,-96.038c9.167,-6.121 38.404,-25.406 64.971,-42.855c26.567,-17.449 50.867,-34.813 53.999,-38.587c3.132,-3.774 16.083,-13.968 28.779,-22.653c12.697,-8.685 28.71,-21.784 35.585,-29.109c6.875,-7.325 17.969,-17.247 24.654,-22.05l12.154,-8.732l-7.438,12.592c-9.792,16.577 -113.723,123.584 -147.678,152.049c-40.274,33.763 -101.212,76.898 -144.88,102.556c-8.789,5.164 -27.229,16.155 -40.979,24.424c-13.75,8.27 -34.383,18.316 -45.852,22.327c-11.469,4.01 -32.192,13.015 -46.051,20.012c-32.12,16.214 -70.124,27.305 -81.352,23.741c-5.998,-1.904 -11.215,-0.092 -16.708,5.805c-4.393,4.715 -15.011,10.234 -23.595,12.265c-8.584,2.03 -24.983,6.096 -36.441,9.036c-38.39,9.85 -57.995,11.965 -64.219,6.93c-4.459,-3.607 -6.311,-3.499 -7.639,0.447c-2.584,7.676 -18.088,6.288 -31.969,-2.863Zm-210.757,-79.429c-5.081,-3.284 -4.543,-4.051 2.879,-4.103c5.021,-0.042 10.288,1.811 11.704,4.103c3.279,5.305 -6.374,5.305 -14.583,0Zm107.267,-119.792c-1.364,-2.737 -1.168,-12.128 0.545,-26.131c0.287,-2.341 5.677,-6.487 11.979,-9.213c6.302,-2.726 16.758,-9.249 23.236,-14.494c8.467,-6.856 17.178,-9.537 30.985,-9.537c51.594,0 202.227,-42.36 270.006,-75.929c15.894,-7.872 35.461,-16.89 43.481,-20.041c32.201,-12.649 130.661,-75.395 185.417,-118.163c311.078,-242.97 570.436,-656.091 623.034,-992.409c41.863,-267.677 -25.371,-460.49 -267.236,-766.374c-185.669,-234.814 -250.835,-431.404 -205.103,-618.75c15.282,-62.607 20.76,-62.12 26.409,2.345c14.652,167.198 78.401,293.94 258.697,514.321c210.193,256.925 273.25,371.505 312.153,567.206c58.244,292.995 -57.604,676.078 -301.204,996.009c-68.679,90.199 -73.832,96.656 -109.144,136.761c-254.598,289.156 -540.213,437.525 -842.251,437.525c-32.696,0 -60.148,-1.406 -61.005,-3.125Zm-90.013,-10.112c-18.102,-4.086 -22.792,-20.392 -9.646,-33.538c4.938,-4.939 41.603,1.209 43.968,7.372c8.214,21.405 -6.321,32.486 -34.322,26.165Zm39.293,-34.977c-9.778,-9.778 -8.995,-10.119 23.265,-10.119c29.548,0 29.746,0.075 22.271,8.333c-9.267,10.24 -36.032,11.289 -45.536,1.786Zm476.745,-320.445c7.141,-15.915 14.595,-30.884 16.564,-33.264c9.313,-11.253 60.882,-143.823 75.43,-193.911c101.506,-349.474 13.872,-613.181 -287.316,-864.583c-19.218,-16.042 -44.53,-37.62 -56.248,-47.952c-11.718,-10.332 -27.868,-23.423 -35.889,-29.092c-42.935,-30.343 -199.936,-162.229 -220.614,-185.323c-8.142,-9.093 -20.367,-22.218 -27.166,-29.167c-69.426,-70.945 -118.998,-150.499 -143.648,-230.528c-76.574,-248.611 24.267,-464.246 281.011,-600.908c22.917,-12.198 54.792,-30.533 70.833,-40.744c16.042,-10.211 32.917,-20.902 37.5,-23.758c117.528,-73.235 211.607,-220.298 237.248,-370.862c3.512,-20.625 8.756,-51.55 11.652,-68.723c12.55,-74.412 40.672,5.533 40.679,115.643c0.013,217.181 -110.737,378.087 -339.58,493.36c-188.324,94.863 -267.365,251.197 -224.606,444.245c29.297,132.27 111.117,242.831 316.812,428.099c40.634,36.598 95.486,87.167 121.895,112.376c61.767,58.959 63.551,51.865 7.935,-31.556c-180.752,-271.119 -275.955,-433.027 -254.622,-433.027c8.261,0 263.602,275.703 295.209,318.75c6.731,9.167 21.644,27.628 33.141,41.025c115.224,134.271 221.339,336.62 256.382,488.889c34.834,151.361 14.807,357.128 -48.493,498.237c-10.03,22.358 -18.236,41.572 -18.236,42.698c0,20.121 -111.179,184.687 -147.727,218.665l-11.13,10.347l12.983,-28.937Zm219.562,-132.917c-2.73,-7.114 4.776,-15.091 14.2,-15.091c7.676,0 11.95,7.364 9.068,15.625c-2.459,7.049 -20.517,6.635 -23.268,-0.534Zm52.145,-90.924c-11.173,-11.173 -1.216,-36.667 14.322,-36.667c19.974,0 29.575,21.342 15.797,35.119c-7.771,7.771 -23.108,8.559 -30.119,1.548Zm51.061,-117.727c-13.76,-13.76 -13.078,-29.23 1.952,-44.26c22.128,-22.128 54.487,-9.816 54.487,20.73c0,30.836 -34.677,45.293 -56.439,23.53Zm-320.535,-111.648c-8.46,-21.261 -62.798,-104.46 -89.124,-136.458c-126.628,-153.917 -299.56,-242.444 -496.236,-254.032c-34.928,-2.058 -56.67,-5.064 -57.639,-7.969c-2.113,-6.339 -9.26,-5.866 -17.199,1.139c-3.618,3.192 -18.012,7.093 -31.986,8.669l-25.408,2.866l-6.884,-14.507c-7.723,-16.274 -8.546,-22.323 -3.316,-24.359c1.962,-0.764 4.551,-10.349 5.752,-21.301c2.62,-23.889 -4.605,-30.633 -24.694,-23.05c-15.33,5.786 -33.005,1.693 -38.708,-8.964c-3.801,-7.102 -2.43,-8.603 11.338,-12.419c30.699,-8.508 84.87,-13.946 89.802,-9.014c6.27,6.27 26.837,5.845 28.985,-0.599c4.82,-14.459 130.097,-3.307 208.685,18.577c241.099,67.137 400.071,236.188 458.598,487.673c4.143,17.802 -4.112,13.49 -11.967,-6.25Zm371.871,-21.894c-45.792,-25.76 -6.3,-98.147 41.19,-75.5c27.126,12.935 32.404,50.848 9.913,71.202c-10.956,9.915 -37.196,12.122 -51.103,4.298Zm31.389,-169.079c-24.886,-7.355 -39.734,-40.278 -30.62,-67.892c14.95,-45.298 76.033,-49.404 98.168,-6.598c21.602,41.773 -20.639,88.355 -67.548,74.491Zm-1212.145,-188.063c3.641,-18.205 7.267,-20.819 20.411,-14.714c11.78,5.471 14.913,11.415 6.073,11.523c-3.863,0.047 -3.759,0.982 0.402,3.619c4.096,2.596 1.961,4.827 -7.913,8.27c-20.081,7 -21.941,6.147 -18.973,-8.697l-0,0Zm1200.443,-18.013c-45.989,-15.803 -58.229,-71.744 -23.331,-106.641c46.133,-46.133 122.803,-5.501 108.584,57.544c-8.852,39.247 -48.114,61.859 -85.252,49.098Zm-1168.584,-37.126c-5.451,-6.568 -2.19,-23.117 4.555,-23.117c16.576,0 27.534,21.324 13.688,26.638c-9.741,3.738 -12.692,3.168 -18.243,-3.521Zm1770.667,-160.428c0,-176.702 25.519,-329.191 106.367,-635.605c87.247,-330.664 86.245,-439.043 -4.831,-522.497c-62.037,-56.845 -131.496,-77.382 -297.369,-87.92c-347.049,-22.05 -456.411,-110.333 -407.756,-329.166c5.219,-23.474 9.173,-57.413 9.716,-83.396c1.274,-61.035 15.512,-104.604 20.908,-63.982c13.368,100.635 90.536,192.842 207,247.343c66.862,31.289 106.587,13.045 107.397,-49.322c0.283,-21.764 9.092,-37.983 25.857,-47.605c11.687,-6.707 12.24,-8.193 9.603,-25.784c-2.721,-18.144 -2.377,-18.915 12.27,-27.557c15.065,-8.889 15.069,-8.899 14.329,-36.586c-0.947,-35.403 3.358,-42.827 32.814,-56.586c37.127,-17.341 37.027,-16.717 11.375,-70.682c-12.289,-25.853 -25.872,-59.963 -30.185,-75.799c-7.417,-27.234 -8.891,-29.358 -27.217,-39.21c-47.103,-25.325 -50.427,-41.538 -6.828,-33.311c34.772,6.561 32.649,8.325 47.671,-39.605c18.149,-57.905 19.901,-200 2.467,-200c-3.278,0 -12.041,10.407 -19.473,23.126c-55.694,95.314 -228.008,204.766 -344.323,218.711c-30.916,3.707 -30.46,2.686 10.417,-23.33c240.374,-152.983 336.908,-320.539 240.32,-417.127c-99.832,-99.832 -331.972,-124.503 -522.375,-55.516c-49.855,18.063 -134.029,61.702 -152.32,78.967c-18.145,17.128 -33.333,25.533 -33.333,18.448c0,-19.003 118.541,-116.241 181.382,-148.785c296.634,-153.624 688.055,-28.078 666.15,213.662c-2.479,27.354 -1.526,33.464 9.844,63.147c33.261,86.829 32.199,153.311 -4.002,250.535c-14.045,37.72 -13.313,41.783 9.212,51.113c14.519,6.014 13.196,10.434 -4.165,13.906c-19.16,3.832 -16.518,18.697 14.497,81.577c37.325,75.673 33.271,96.236 -22.631,114.804c-24.708,8.207 -28.015,15.365 -20.551,44.489l5.411,21.114l-13.406,11.979c-11.042,9.866 -13.406,15.045 -13.406,29.367c0,15.39 -2.251,19.454 -19.584,35.368c-19.149,17.58 -19.651,18.682 -22.595,49.506c-8.949,93.688 -79.351,110.07 -205.642,47.851c-45.72,-22.525 -66.945,-39.224 -104.342,-82.095c-39.24,-44.983 -39.537,-45.097 -39.358,-15.123c0.51,85.351 37.97,160.306 93.164,186.417c57.624,27.261 121.09,35.742 329.607,44.047c222.331,8.855 326.657,62.661 385.233,198.684c58.402,135.617 40.511,257.322 -107.475,731.125c-53.893,172.548 -77.35,255.006 -111.853,393.2c-8.01,32.083 -15.335,59.115 -16.276,60.069c-0.942,0.955 -1.712,-26.929 -1.712,-61.964Zm-658.331,-21.311c-76.869,-32.313 -45.245,-152.553 38.018,-144.552c92.729,8.91 89.083,142.788 -4.022,147.689c-12.97,0.683 -28.268,-0.729 -33.996,-3.137Zm-85.419,-218.879c-82.474,-45.356 -38.261,-175.992 51.392,-151.851c72.346,19.481 85.923,110.065 22.101,147.458c-18.48,10.827 -57.547,13.162 -73.493,4.392Zm-95.833,-223.048c-26.726,-10.813 -33.559,-17.223 -42.042,-39.436c-35.595,-93.205 87.826,-163.109 145.254,-82.27c48.191,67.836 -24.5,153.552 -103.212,121.705Zm-71.599,-240.881c-32.376,-14.699 -50.561,-58.402 -38.945,-93.597c20.895,-63.313 114.747,-69.582 142.03,-9.488c31.596,69.593 -33.492,134.681 -103.085,103.085Zm-18.832,-244.316c-28.924,-12.477 -42.219,-62.821 -24.335,-92.151c33.052,-54.207 120.964,-30.909 120.995,32.065c0.025,50.345 -48.833,80.716 -96.66,60.086Zm32.098,-227.437c-43.093,-23.775 -43.07,-72.348 0.045,-92.808c40.274,-19.111 83.704,31.567 62.384,72.795c-10.954,21.182 -42.171,31.189 -62.429,20.013l-0,0Zm39.615,-197.198c-25.936,-27.608 6.127,-75.159 40.952,-60.733c7.313,3.029 15.393,11.109 19.261,19.261c17.5,36.879 -32.303,71.182 -60.214,41.473Zm71.729,-158.603c-10.075,-7.057 -12.216,-22.225 -4.26,-30.18c12.252,-12.252 40.833,-0.377 40.833,16.967c0,6.853 -14.944,19.7 -22.917,19.7c-2.418,0 -8.563,-2.919 -13.656,-6.486Zm-84.683,-186.89c-1.378,-1.434 -19.191,-4.625 -39.583,-7.091c-39.722,-4.804 -76.661,-17.829 -76.661,-27.033c0,-8.504 -19.167,-19.423 -28.754,-16.38c-9.899,3.142 -27.933,-5.501 -41.266,-19.777l-9.604,-10.283l17.937,-10.592c9.865,-5.826 24.398,-17.314 32.296,-25.53c17.872,-18.593 17.586,-18.606 52.359,2.367c83.258,50.215 226.949,47.018 363.5,-8.087c51.141,-20.638 56.691,-20.742 42.024,-0.782c-27.245,37.076 -120.557,92.622 -185.986,110.711c-38.753,10.714 -120.219,18.765 -126.262,12.477Zm-247.358,-135.526c-10.755,-20.797 1.107,-33.973 15.884,-17.644c8.143,8.998 8.825,17.951 1.896,24.88c-7.531,7.531 -10.84,6.185 -17.78,-7.236Zm57.199,-44.785c-2.841,-6.117 -4.258,-12.029 -3.151,-13.136c3.138,-3.138 18.732,12.445 18.732,18.72c0,9.684 -10.187,6.033 -15.581,-5.583Zm-102.654,-49.39c-4.021,-10.478 -2.835,-13.181 2.077,-4.735c2.432,4.182 3.544,8.482 2.471,9.555c-1.073,1.073 -3.12,-1.096 -4.549,-4.82Zm192.621,-69.028c-17.061,-4.887 -20.826,-13.938 -21.772,-52.341c-0.657,-26.689 0.518,-27.853 20.876,-20.67c75.958,26.799 235.651,18.966 298.443,-14.639c18.602,-9.955 9.639,1.097 -16.553,20.412c-77.071,56.835 -207.97,88.157 -280.995,67.238Zm-209.144,-101.432c-1.549,-4.035 -0.315,-5.269 3.721,-3.721c6.591,2.529 8.307,9.759 2.317,9.759c-2.047,0 -4.764,-2.717 -6.038,-6.038Zm151.425,-437.266c0,-3.192 -2.83,-6.89 -6.289,-8.217c-3.459,-1.327 -5.803,-4.74 -5.208,-7.585c0.594,-2.845 -3.138,-7.091 -8.295,-9.437c-13.853,-6.303 -11.659,-20.254 5.565,-35.377c12.004,-10.539 13.977,-14.276 10.044,-19.016c-7.159,-8.627 25.971,-27.68 56.267,-32.359c4.583,-0.708 13.121,-4.468 18.973,-8.355c43.812,-29.105 186.034,-46.523 247.023,-30.252c76.544,20.42 82.739,33.358 17.643,36.847c-59.569,3.192 -153.36,25.048 -200.325,46.68c-18.322,8.439 -39.876,17.754 -47.897,20.699c-14.23,5.225 -49.28,26.64 -71.492,43.68c-13.062,10.021 -16.008,10.516 -16.008,2.692Zm-116.667,-6.412c0,-2.136 5.625,-7.888 12.5,-12.784c10.005,-7.124 12.5,-7.644 12.5,-2.603c0,3.464 -4.167,9.216 -9.26,12.784c-10.539,7.382 -15.74,8.242 -15.74,2.603Z" style="fill:#e33255;fill-rule:nonzero;"/><path id="path2" d="M1551.339,3943.541c-1.452,-3.784 2.12,-6.548 10.676,-8.259c17.418,-3.484 19.101,-0.321 3.988,7.492c-10.353,5.354 -12.853,5.485 -14.663,0.767Zm22.203,-27.888c0,-9.263 -4.969,-12.54 -12.22,-8.058c-3.202,1.979 -11.271,1.063 -18.966,-2.152c-9.461,-3.953 -14.694,-4.295 -17.824,-1.165c-5.871,5.871 -13.759,0.705 -10.779,-7.06c1.578,-4.112 -0.364,-6.117 -5.922,-6.117c-26.625,0 -15.302,-26.61 18.852,-44.303c19.915,-10.318 158.673,-149.914 199.638,-200.845c17.814,-22.147 42.005,-51.518 53.759,-65.268c11.754,-13.75 27.747,-34.424 35.541,-45.942c7.794,-11.518 23.215,-33.081 34.269,-47.917c47.143,-63.272 126.644,-199.394 165.416,-283.224c170.039,-367.649 151.07,-675.013 -59.228,-959.722c-9.874,-13.368 -29.497,-40.556 -43.605,-60.417c-14.108,-19.861 -32.084,-43.611 -39.947,-52.778c-22.225,-25.912 -53.822,-67.982 -75.105,-100c-10.664,-16.042 -24.003,-34.792 -29.644,-41.667c-9.512,-11.595 -42.139,-68.925 -69.953,-122.917c-63.532,-123.329 -82.331,-333.184 -37.513,-418.75l6.547,-12.5l3.101,16.667c1.706,9.167 3.216,29.792 3.357,45.833c0.431,49.218 52.955,222.486 76.057,250.9c2.266,2.787 13.787,22.478 25.602,43.758c11.815,21.28 32.192,52.75 45.281,69.933c49.799,65.376 98.003,126.144 155.368,195.868c45.307,55.068 81.714,102.423 96.071,124.958c6.57,10.312 17.135,25.535 23.48,33.829c12.053,15.756 28.26,43.047 62.561,105.344c24.862,45.154 62.482,139.843 71.346,179.578c26.811,120.185 34.362,201.826 27.522,297.543c-3.962,55.437 -5.352,65.85 -18.402,137.873c-8.664,47.815 -36.828,146.488 -57.087,200c-33.161,87.593 -55.367,134.202 -123.499,259.22c-11.236,20.617 -29.335,48.841 -71.872,112.075c-14.489,21.54 -45.779,63.317 -74.551,99.538c-13.653,17.188 -37.409,47.188 -52.793,66.667c-26.893,34.052 -164.296,173.302 -184.007,186.479c-7.968,5.327 -11.219,5.508 -19.488,1.083c-15.659,-8.381 -35.185,7.689 -22.877,18.828c12.351,11.178 -13.23,35.277 -37.447,35.277c-4.697,0 -8.54,1.562 -8.54,3.472c0,1.91 -2.812,3.472 -6.25,3.472c-3.438,0 -6.25,-3.327 -6.25,-7.393Zm-210.255,-152.677c7.901,-18.925 12.255,-23.706 18.226,-20.016c6.827,4.219 5.585,8.747 -6.257,22.821c-14.619,17.374 -19.878,16.141 -11.968,-2.805Zm20.738,-21.768c-3.299,-5.338 4.906,-35.791 14.622,-54.274c18.145,-34.515 37.622,-83.848 43.694,-110.668c3.6,-15.903 11.019,-42.978 16.486,-60.165c5.467,-17.188 12.119,-48.125 14.782,-68.75c2.663,-20.625 7.716,-48.75 11.228,-62.5c15.904,-62.265 1.862,-221.793 -27.224,-309.28c-11.921,-35.856 -16.791,-57.382 -16.443,-72.674c0.312,-13.702 -1.37,-22.349 -4.555,-23.41c-20.085,-6.695 -49.356,-47.025 -64.464,-88.821c-6.849,-18.946 -11.535,-26.322 -16.214,-25.518c-3.889,0.668 -21.483,-15.52 -43.022,-39.583c-20.043,-22.393 -49.289,-53.128 -64.991,-68.301c-16.614,-16.054 -28.55,-31.078 -28.55,-35.938c0,-5.77 -3.54,-9.065 -11.458,-10.665c-29.53,-5.967 -56.547,-43.846 -40.671,-57.022c3.412,-2.832 5.053,-7.012 3.646,-9.288c-1.6,-2.588 -3.534,-2.653 -5.162,-0.172c-12.835,19.553 -55.526,1.222 -51.715,-22.207c3.433,-21.104 2.287,-30.373 -4.605,-37.266c-9.798,-9.798 -8.362,-12.235 7.891,-13.394c9.851,-0.702 14.237,0.648 13.533,4.167c-0.572,2.863 1.442,4.691 4.477,4.061c3.035,-0.63 4.607,0.328 3.494,2.129c-2.628,4.253 4.652,13.561 19.674,25.155c6.611,5.102 10.765,9.277 9.231,9.277c-1.534,0 2.901,5.562 9.855,12.36c6.954,6.798 12.644,14.12 12.644,16.271c0,2.151 7.41,3.197 16.467,2.325c19.314,-1.86 41.853,13.631 41.885,28.79c0.013,4.953 5.9,15.279 13.087,22.949l13.068,13.944l18.163,-19.503c20.519,-22.032 22.255,-27.272 8.788,-26.514c-22.307,1.256 -48.898,-22.285 -48.943,-43.33c-0.008,-4.01 -1.934,-7.292 -4.278,-7.292c-2.344,0 -1.201,-4.673 2.541,-10.385c3.742,-5.711 5.775,-13.066 4.518,-16.343c-2.987,-7.785 -19.463,-3.64 -19.463,4.896c0,3.5 -6.266,-1.875 -13.924,-11.944c-18.278,-24.033 -23.576,-34.431 -23.576,-46.273c0,-11.469 -11.455,-29.422 -16.703,-26.178c-6.598,4.078 -20.104,-15.185 -25.023,-35.69c-4.868,-20.292 -13.091,-31.58 -19.928,-27.355c-7.947,4.911 -22.995,-23.305 -22.295,-41.805c0.638,-16.862 -0.281,-18.455 -14.6,-25.333c-19.157,-9.201 -27.018,-20.507 -18.117,-26.057c7.484,-4.666 41.751,-2.386 52.659,3.503c4.267,2.304 11.234,5.279 15.482,6.612c4.634,1.453 6.79,4.855 5.39,8.504c-1.284,3.345 -0.828,7.012 1.013,8.15c1.84,1.138 3.516,8.017 3.722,15.288c0.207,7.271 2.369,15.213 4.805,17.649c2.436,2.436 4.429,10.992 4.429,19.012c0,17.198 5.16,13.445 12.32,-8.958c2.746,-8.594 7.593,-15.625 10.77,-15.625c7.544,0 26.888,28.544 24.161,35.651c-1.283,3.342 4.38,8.804 14.458,13.945c29.216,14.905 51.351,44.979 48.326,65.659c-2.799,19.136 4.02,26.412 24.755,26.412c18.381,0 47.894,39.019 65.394,86.458c2.747,7.448 7.386,13.542 10.308,13.542c7.102,0 27.948,24.165 42.092,48.793c6.304,10.977 23.593,40.395 38.422,65.375c33.21,55.945 58.845,112.677 58.931,130.417c0.037,7.334 2.623,14.834 5.75,16.667c21.532,12.619 60.978,181.928 60.98,261.737c0.003,101.532 -8.845,176.143 -29.39,247.846c-19.359,67.563 -20.595,71.066 -35.65,101.047c-7.769,15.472 -14.126,30.781 -14.126,34.021c0,7.185 -30.783,66.407 -43.497,83.683c-5.06,6.875 -10.261,15.395 -11.558,18.933c-11.829,32.272 -61.561,93.346 -67.795,83.258Zm195.385,-101.683c-3.372,-8.788 1.361,-15.091 11.334,-15.091c6.295,0 8.046,2.32 7.046,9.332c-1.554,10.892 -14.816,15.046 -18.38,5.758Zm49.132,-90.924c-11.173,-11.173 -1.216,-36.667 14.322,-36.667c19.974,0 29.575,21.342 15.797,35.119c-7.771,7.771 -23.108,8.559 -30.119,1.548Zm51.061,-117.727c-13.76,-13.76 -13.078,-29.23 1.952,-44.26c22.128,-22.128 54.487,-9.816 54.487,20.73c0,30.836 -34.677,45.293 -56.439,23.53Zm-318.153,-107.061c-6.042,-17.332 -6.082,-27.552 -0.084,-21.554c5.727,5.727 12.388,34.676 7.978,34.676c-1.826,0 -5.379,-5.905 -7.895,-13.122l0,0Zm369.489,-26.481c-45.792,-25.76 -6.3,-98.147 41.19,-75.5c27.126,12.935 32.404,50.848 9.913,71.202c-10.956,9.915 -37.196,12.122 -51.103,4.298Zm-376.723,-12.481c-1.319,-3.438 -4.683,-6.25 -7.476,-6.25c-7.399,0 -20.401,-15.311 -37.154,-43.75c-8.1,-13.75 -30.811,-44.498 -50.469,-68.328c-24.745,-29.997 -35.023,-45.593 -33.406,-50.691c2.756,-8.682 -1.638,-12.032 -18.594,-14.178c-21.843,-2.764 -55.124,-34.073 -56.615,-53.259c-0.81,-10.42 -5.475,-13.778 -11.196,-8.058c-9.048,9.048 -44.92,-9.973 -38.476,-20.401c4.15,-6.715 -14.061,-42.277 -19.825,-38.714c-10.96,6.774 -20.41,4.664 -19.122,-4.27c1.474,-10.23 24.159,-14.438 24.159,-4.482c0,3.692 2.497,4.911 6.731,3.287c5.266,-2.021 6.146,-0.74 4.043,5.887c-1.845,5.813 -0.502,9.309 4.282,11.145c9.048,3.472 12.847,-0.452 6.542,-6.757c-8.723,-8.723 -5.409,-10.289 19.028,-8.996c13.177,0.697 26.363,1.335 29.301,1.417c2.938,0.082 7.038,4.368 9.111,9.524c2.976,7.404 3.824,7.811 4.032,1.937c0.218,-6.131 1.729,-6.654 8.597,-2.978c10.497,5.618 10.645,11.205 0.385,14.461c-9.945,3.156 -13.772,11.887 -15.172,34.613l-1.098,17.824l15.235,-2.595c8.379,-1.427 22.271,-5.934 30.871,-10.015l15.636,-7.42l12.395,12.678c6.964,7.123 15.226,22.415 18.855,34.899c4.954,17.04 8.353,22.221 14.581,22.221c11.92,0 23.411,18.932 16.527,27.228c-8.002,9.642 1.186,26.939 14.311,26.939c18.258,0 45.295,54.242 55.773,111.89c3.808,20.949 3.011,27.708 -1.791,15.194l-0,0Zm408.112,-156.598c-24.886,-7.355 -39.734,-40.278 -30.62,-67.892c14.95,-45.298 76.033,-49.404 98.168,-6.598c21.602,41.773 -20.639,88.355 -67.548,74.491Zm-24.883,-212.403c-61.986,-39.709 -21.672,-132.972 50.498,-116.821c74.901,16.762 60.595,125.521 -16.484,125.319c-13.735,-0.037 -25.324,-2.932 -34.014,-8.498Zm615.264,-191.227c0,-176.739 25.728,-330.42 106.41,-635.605c74.271,-280.939 82.32,-383.243 36.88,-468.75c-49.045,-92.292 -135.891,-128.754 -337.04,-141.506c-348.613,-22.101 -458.107,-110.065 -409.933,-329.327c5.938,-27.028 9.783,-58.985 10.059,-83.61c0.672,-59.979 15.26,-104.575 20.722,-63.345c13.266,100.145 90.682,192.518 206.937,246.921c66.862,31.289 106.587,13.045 107.397,-49.322c0.283,-21.764 9.092,-37.983 25.857,-47.605c11.687,-6.707 12.24,-8.193 9.603,-25.784c-2.721,-18.144 -2.377,-18.915 12.27,-27.557c15.065,-8.889 15.069,-8.899 14.329,-36.586c-0.947,-35.403 3.358,-42.827 32.814,-56.586c37.127,-17.341 37.027,-16.717 11.375,-70.682c-12.289,-25.853 -25.872,-59.963 -30.185,-75.799c-7.417,-27.234 -8.891,-29.358 -27.217,-39.21c-47.103,-25.325 -50.427,-41.538 -6.828,-33.311c34.772,6.561 32.649,8.325 47.671,-39.605c18.149,-57.905 19.901,-200 2.467,-200c-3.278,0 -12.041,10.407 -19.473,23.126c-45.594,78.029 -163.744,163.912 -277.28,201.555c-38.011,12.602 -96.772,24.1 -90.941,17.795c1.179,-1.275 23.679,-16.73 50,-34.345c264.282,-176.866 334.499,-344.371 184.291,-439.631c-74.398,-47.182 -212.158,-72.807 -326.017,-60.643c-34.358,3.671 -53.856,4.17 -57.292,1.469c-3.484,-2.74 -7.217,-2.429 -11.276,0.94c-3.337,2.77 -8.314,3.647 -11.06,1.95c-3,-1.854 -3.903,-1.323 -2.263,1.332c1.616,2.615 -5.224,7.128 -16.765,11.06c-30.625,10.435 -33.274,9.463 -35.84,-13.149c-2.613,-23.03 2.155,-31.164 16.204,-27.638c7.352,1.845 13.69,-0.818 24.468,-10.282c8.001,-7.025 22.54,-14.829 32.309,-17.344c9.77,-2.514 26.201,-7.221 36.513,-10.459c54.997,-17.267 189.707,-21.821 252.083,-8.522c188.635,40.219 277.902,124.868 279.319,264.868c0.432,42.711 1.904,51.764 13.551,83.333c30.5,82.673 26.878,141.677 -15.802,257.379c-5.871,15.916 -2.357,22.235 16.767,30.157c14.519,6.014 13.196,10.434 -4.165,13.906c-19.16,3.832 -16.518,18.697 14.497,81.577c37.325,75.673 33.271,96.236 -22.631,114.804c-24.708,8.207 -28.015,15.365 -20.551,44.489l5.411,21.114l-13.406,11.979c-11.042,9.866 -13.406,15.045 -13.406,29.367c0,15.39 -2.251,19.454 -19.584,35.368c-19.149,17.58 -19.651,18.682 -22.595,49.506c-8.949,93.688 -79.351,110.07 -205.642,47.851c-45.72,-22.525 -66.945,-39.224 -104.342,-82.095c-39.24,-44.983 -39.537,-45.097 -39.358,-15.123c0.514,85.911 39.315,162.803 94.54,187.348c61.305,27.247 117.746,34.657 328.232,43.091c357.827,14.337 477.516,190.002 384.759,564.7c-19.827,80.091 -56.796,205.773 -103.566,352.083c-15.75,49.271 -31.519,100.962 -35.042,114.87c-3.523,13.908 -9.384,33.595 -13.024,43.75c-7.5,20.922 -34.394,119.948 -62.726,230.964c-10.527,41.25 -19.893,75.781 -20.813,76.736c-0.92,0.955 -1.672,-26.929 -1.672,-61.964Zm-669.565,-29.172c-53.027,-32.333 -35.036,-120.161 27.325,-133.395c65.36,-13.87 115.032,61.13 76.409,115.371c-18.607,26.132 -74.508,35.844 -103.734,18.024Zm-619.142,-116.85c-1.416,-5.416 -0.128,-8.333 3.681,-8.333c3.223,0 5.86,3.75 5.86,8.333c0,4.583 -1.656,8.333 -3.681,8.333c-2.024,0 -4.661,-3.75 -5.86,-8.333Zm557.457,-90.35c-13.053,-3.409 -22.917,-14.18 -22.917,-25.025c0,-5.455 3.281,-14.935 7.292,-21.068c4.01,-6.133 5.077,-9.786 2.371,-8.119c-2.706,1.668 -6.098,1.126 -7.538,-1.203c-1.439,-2.329 -7.194,-4.235 -12.788,-4.235c-5.594,0 -10.199,-2.344 -10.235,-5.208c-0.043,-3.472 -1.41,-3.125 -4.103,1.042c-2.893,4.477 -4.057,0.082 -4.103,-15.494c-0.05,-16.934 1.226,-21.249 5.765,-19.508c7.97,3.058 12.921,-5.882 12.921,-23.331c0,-44.825 90.252,-41.297 120.704,4.718c20.209,30.538 15.956,83.539 -6.141,76.526c-4.687,-1.488 -8.177,-1.157 -7.756,0.734c0.421,1.891 -0.289,6.252 -1.579,9.689c-1.29,3.438 -3.366,9.433 -4.614,13.323c-3.219,10.037 -49.428,21.822 -67.281,17.16Zm29.185,-109.679c1.426,-2.308 -0.419,-5.352 -4.101,-6.765c-7.978,-3.061 -12.424,0.312 -8.589,6.517c3.46,5.598 9.312,5.713 12.69,0.248l0,-0Zm6.232,-16.23c0,-2.068 -5.625,-5.72 -12.5,-8.117c-14.185,-4.945 -15.262,-3.981 -5.952,5.328c7.118,7.118 18.452,8.831 18.452,2.789Zm-650.433,101.154c-2.618,-3.154 -2.671,-5.893 -0.145,-7.454c5.272,-3.258 16.101,1.069 18.533,7.405c2.517,6.56 -12.95,6.601 -18.388,0.049l0,0Zm36.206,-156.827c-5.925,-10.111 -10.773,-19.422 -10.773,-20.691c0,-4.77 22.216,-7.662 26.436,-3.441c2.419,2.419 8.383,4.397 13.254,4.397c23.937,0 32.249,26.93 9.307,30.155c-7.469,1.05 -16.701,3.271 -20.515,4.936c-5.268,2.3 -9.524,-1.391 -17.708,-15.356Zm35.06,-9.564c0,-3.573 -1.875,-5.337 -4.167,-3.921c-2.292,1.416 -4.167,4.34 -4.167,6.496c0,2.156 1.875,3.921 4.167,3.921c2.292,0 4.167,-2.923 4.167,-6.496Zm-59.84,-41.421c-2.72,-7.087 0.769,-18.75 5.609,-18.75c6.123,0 13.485,12.425 11.078,18.697c-3.113,8.113 -13.581,8.147 -16.687,0.053l0,0Zm564.007,-7.778c0,-9.068 1.741,-10.734 10.46,-10.013c12.124,1.003 11.663,6.201 -1.313,14.818c-8.633,5.732 -9.147,5.462 -9.147,-4.805Zm-14.762,-23.124c1.869,-10.855 1.409,-13.225 -1.686,-8.681c-3.471,5.096 -4.269,4.454 -4.321,-3.472c-0.087,-13.195 9.983,-9.398 11.628,4.384c1.024,8.58 3.001,10.235 10.033,8.396c8.628,-2.256 8.64,-2.169 0.808,5.891c-12.938,13.315 -19.435,10.743 -16.462,-6.518Zm-572.193,-17.689c-7.078,-11.333 -3.674,-13.854 5.307,-3.931c3.955,4.37 5.568,8.948 3.586,10.173c-1.982,1.225 -5.984,-1.584 -8.893,-6.242Zm621.098,3.985c-2.737,-2.737 -4.977,-3.53 -4.977,-1.762c0,1.768 -3.071,0.143 -6.825,-3.611c-8.304,-8.304 -0.788,-37.465 11.327,-43.949c8.927,-4.777 12.19,2.386 12.101,26.562c-0.078,21.367 -4.454,29.933 -11.626,22.761Zm-146.643,-24.908c0,-16.603 13.221,-23.441 26.52,-13.716c11.194,8.185 8.471,18.647 -4.853,18.647c-6.417,0 -13.917,2.25 -16.667,5c-3.889,3.889 -5,1.682 -5,-9.931Zm43.928,9.386c-1.318,-2.133 -0.492,-5.057 1.837,-6.496c4.972,-3.073 12.568,0.827 12.568,6.454c0,5.07 -11.278,5.103 -14.405,0.042l0,-0Zm22.796,-13.83c0.172,-15.741 5.959,-23.915 20.174,-28.494c21.496,-6.925 21.405,-6.809 16.502,-20.872c-5.588,-16.029 0.017,-23.349 12.687,-16.569c12.068,6.459 5.443,23.973 -17.129,45.279c-4.01,3.786 -7.292,8.603 -7.292,10.706c0,4.942 -13.057,14.854 -19.792,15.026c-2.865,0.073 -5.183,-2.211 -5.151,-5.076Zm-354.224,-633.865c0,-0.865 3.281,-4.146 7.292,-7.292c6.609,-5.183 6.756,-5.035 1.573,1.573c-5.443,6.941 -8.865,9.148 -8.865,5.718Zm3.125,-22.004c-15.748,-6.532 -22.518,-25.838 -11.458,-32.673c2.478,-1.531 4.167,3.395 4.167,12.151c0,13.986 0.523,14.527 10.417,10.766c5.729,-2.178 10.556,-3.538 10.726,-3.022c1.373,4.16 3.59,19.643 2.789,19.474c-0.559,-0.118 -8.047,-3.131 -16.641,-6.696Zm43.08,-66.093c-10.04,-10.36 -17.512,-19.481 -16.605,-20.269c25.84,-22.438 66.708,-0.008 50.372,27.647c-9.072,15.357 -12.449,14.619 -33.767,-7.378Zm64.75,-67.43c-1.613,-1.613 -8.002,-3.02 -14.197,-3.125c-21.477,-0.365 -23.885,-48.504 -2.826,-56.511c26.728,-10.162 49.735,18.911 37.72,47.665c-5.844,13.986 -13.977,18.69 -20.697,11.971Zm219.679,-34.822c-15.753,-5.857 -15.051,-11.611 0.975,-7.997c8.186,1.846 15.754,4.227 16.817,5.29c3.934,3.934 -9.141,5.923 -17.792,2.707Zm-286.079,-20.308c3.493,-13.356 16.288,-23.096 19.465,-14.817c1.403,3.655 0.897,5.624 -1.124,4.375c-2.021,-1.249 -4.848,2.404 -6.282,8.117c-1.434,5.713 -5.208,10.388 -8.388,10.388c-3.665,0 -5.009,-2.952 -3.672,-8.064Zm106.026,-27.353c0.029,-4.583 2.706,-14.896 5.949,-22.917l5.897,-14.583l-2.587,14.583c-1.423,8.021 -4.1,18.333 -5.949,22.917l-3.362,8.333l0.053,-8.333Zm-31.533,-96.131c-3.785,-3.785 -6.548,-4.56 -6.548,-1.837c0,2.591 -1.699,3.66 -3.775,2.377c-2.213,-1.368 -1.925,-8.364 0.698,-16.909c2.46,-8.017 5.413,-13.636 6.562,-12.487c1.149,1.149 5.845,-1.196 10.435,-5.212c6.037,-5.281 7.403,-5.572 4.935,-1.051c-2.617,4.796 -2.22,5.152 1.709,1.533c3.798,-3.499 3.955,-6.996 0.611,-13.542c-9.44,-18.476 -10.957,-23.686 -9.548,-32.783c0.799,-5.156 3.873,-9.375 6.831,-9.375c2.958,0 12.15,-4.595 20.425,-10.211c18.297,-12.417 17.863,-13.073 21.644,32.714c2.936,35.549 2.724,36.998 -5.121,34.947c-8.607,-2.251 -9.362,-0.382 -10.036,24.841c-0.417,15.594 -25.673,20.144 -38.823,6.994Zm16.609,-149.702c3.835,-29.967 9.39,-39.496 16.976,-29.121c7.469,10.214 7.219,17.231 -0.723,20.278c-3.533,1.356 -9.236,8.588 -12.672,16.071l-6.247,13.606l2.666,-20.833Zm306.01,-89.757c0,-5.252 1.161,-8.388 2.579,-6.969c1.419,1.419 5.32,-0.161 8.669,-3.51c3.349,-3.349 7.814,-5.024 9.921,-3.722c2.107,1.302 3.831,-0.021 3.831,-2.938c0,-3.582 2.321,-2.985 7.143,1.837c9.122,9.122 1.55,18.113 -18.657,22.154c-12.065,2.413 -13.486,1.691 -13.486,-6.851Zm51.887,-16.076c-2.184,-2.076 -7.721,-4.451 -12.304,-5.278c-4.583,-0.827 -7.682,-3.059 -6.885,-4.96c0.796,-1.902 -3.474,-8.595 -9.49,-14.874l-10.938,-11.417l16.746,-5.017c9.211,-2.76 27.543,-4.865 40.74,-4.68c13.196,0.186 27.123,0.384 30.948,0.441c11.512,0.172 12.839,12.464 2.538,23.495c-15.427,16.519 -44.261,29.034 -51.355,22.29Zm57.689,-48.537l-9.174,-10.469l35.798,-16.539c36.83,-17.015 42.966,-18.909 42.966,-13.257c0,7.657 -50.751,51.288 -59.101,50.81c-0.724,-0.042 -5.444,-4.786 -10.489,-10.545Zm-162.985,-233.13c5.436,-11.931 8.695,-12.858 15.667,-4.457c3.95,4.759 3.268,6.857 -3.383,10.417c-13.827,7.4 -17.549,5.594 -12.285,-5.959Zm42.991,-16.287c-10.649,-12.453 -4.289,-19.735 21.499,-24.613c24.705,-4.674 19.209,15.593 -6.923,25.528c-7.215,2.743 -11.688,2.462 -14.576,-0.914Zm7.323,-619.13c-13.004,-6.201 -21.066,-12.524 -19.922,-15.625c4.159,-11.271 -15.246,4.482 -19.889,16.146c-1.254,3.151 -2.117,-2.298 -1.916,-12.108l0.365,-17.837l25.354,2.559c41.766,4.215 105.536,26.814 100.169,35.498c-5.037,8.151 -61.003,2.411 -84.16,-8.632Z" style="fill:#d3265a;fill-rule:nonzero;"/></g></g></svg>